<?xml version="1.0" encoding="UTF-8"?>
<svg id="Layer_1" xmlns="http://www.w3.org/2000/svg" viewBox="0 0 28.28 28.27">
  <defs>
    <style>
      .cls-1 {
        fill: #ed7a39;
      }
    </style>
  </defs>
  <path class="cls-1" d="M27.53,4.87c-.73-1.9-2.23-3.4-4.13-4.13-1.1-.41-2.26-.63-3.43-.65-1.51-.07-1.99-.09-5.83-.09s-4.33,0-5.83.09c-1.17.02-2.33.24-3.43.65C2.97,1.47,1.48,2.97.74,4.87.33,5.97.11,7.13.09,8.3c-.06,1.51-.09,1.99-.09,5.83s0,4.33.09,5.83c.02,1.17.24,2.33.66,3.43.73,1.9,2.23,3.4,4.13,4.13,1.1.41,2.26.63,3.43.66,1.51.07,1.99.09,5.83.09s4.33-.01,5.83-.09c1.17-.02,2.33-.24,3.43-.66,1.9-.73,3.4-2.23,4.13-4.13.41-1.1.63-2.26.66-3.43.07-1.51.09-1.99.09-5.83s-.01-4.33-.09-5.83c-.02-1.17-.24-2.33-.66-3.43ZM24.65,19.35c-.06,1.26-.27,1.95-.45,2.4-.21.56-.54,1.07-.97,1.49-.42.43-.93.76-1.49.97-.77.29-1.58.44-2.4.45-1.37.06-1.77.08-5.22.08s-3.86-.01-5.22-.08c-1.26-.06-1.95-.27-2.4-.45-.56-.21-1.07-.54-1.49-.97-.43-.42-.76-.93-.97-1.49-.29-.77-.44-1.58-.45-2.4-.06-1.37-.08-1.78-.08-5.22s0-3.86.08-5.22c.06-1.26.27-1.95.45-2.4.21-.56.54-1.07.97-1.49.42-.43.93-.76,1.49-.97.77-.29,1.58-.44,2.4-.45,1.37-.06,1.78-.08,5.22-.08s3.86,0,5.22.08c1.26.06,1.95.27,2.4.45.56.21,1.07.54,1.49.97.43.42.76.93.97,1.49.29.77.44,1.58.45,2.4.06,1.37.08,1.78.08,5.22s-.02,3.86-.08,5.22Z"/>
  <path class="cls-1" d="M21.2,5.3c-.98,0-1.77.79-1.77,1.77s.79,1.77,1.77,1.77,1.77-.79,1.77-1.77-.79-1.77-1.77-1.77Z"/>
  <path class="cls-1" d="M14.13,7.07c-3.9,0-7.07,3.17-7.07,7.07s3.16,7.07,7.07,7.07,7.06-3.16,7.07-7.07c0-3.9-3.16-7.07-7.07-7.07ZM14.13,17.67c-1.95,0-3.53-1.58-3.53-3.53s1.58-3.53,3.53-3.53,3.53,1.58,3.53,3.53-1.58,3.53-3.53,3.53Z"/>
</svg>