<?xml version="1.0" encoding="UTF-8"?>
<svg id="Layer_1" xmlns="http://www.w3.org/2000/svg" viewBox="0 0 24.89 24.88">
  <path d="M24.63,20.91c-1.41,3.38-4.71,3.97-5.8,3.97-.32,0-5.26.26-12.36-6.47C.77,12.98.07,7.16,0,6.05-.05,4.97.25,2.26,3.98.25c.46-.25,1.37-.36,1.61-.12.11.11,3.23,5.25,3.31,5.42.08.15.12.33.12.5,0,.24-.17.53-.5.88-.33.35-.7.68-1.09.97-.38.28-.75.6-1.09.93-.33.33-.5.6-.5.81.02.55.47,2.51,3.9,5.52,3.42,3.01,5.07,3.86,5.23,3.92.13.05.26.08.4.09.21,0,.48-.17.81-.5s1.43-1.85,1.79-2.18c.35-.33.65-.5.88-.5.17,0,.35.04.5.12.17.08,5.32,3.09,5.42,3.2.27.27.08,1.13-.12,1.61"/>
</svg>