<?xml version="1.0" encoding="UTF-8"?>
<svg id="Layer_1" xmlns="http://www.w3.org/2000/svg" viewBox="0 0 159.12 46.79">
  <defs>
    <style>
      .cls-1 {
        fill: #fff;
      }
    </style>
  </defs>
  <path class="cls-1" d="M82.99,46.65c-24,0-48,0-72,0-1.14,0-2.75.32-3.84,0-.79-.24-.82-1.64-1.04-2.41-.66-2.24-1.32-4.45-1.97-6.7-.68-2.36-1.36-4.7-2.07-7.04-.63-2.07-1.49-4.15-1.92-6.28-.27-1.35,1.19-.94,2.23-.94,1.62,0,3.25,0,4.87,0,2.96,0,5.92,0,8.88,0,6.02,0,12.04,0,18.05,0,23.98,0,47.97,0,71.95,0,12.04,0,24.08,0,36.12,0,2.96,0,5.93-.07,8.89,0,1.38.03,1.38.62,1.73,1.84.36,1.26.68,2.57,1.13,3.81,1.79,4.91,2.98,10.1,4.46,15.11.2.67,1.09,2.26.43,2.62-.35.19-1.4,0-1.8,0-.85,0-1.71,0-2.56,0-2.94,0-5.89,0-8.83,0-5.98,0-11.97,0-17.95,0-11.97,0-23.94,0-35.91,0-2.94,0-5.89,0-8.83,0ZM53.34,43.4c2.04,0,4.7.3,6.24-1.29,1.36-1.41,1.84-3.82,2.45-5.62.75-2.2,1.53-4.39,2.26-6.6.27-.83.6-1.98.03-2.77-.58-.81-1.77-.74-2.65-.81-1.19-.1-2.39-.08-3.58-.08-.96,0-1.95-.25-2.5.67-.53.89-.71,2.26-1.06,3.26-.36,1.03-.69,2.07-1.05,3.09-.81,2.28-1.7,4.56-2.39,6.87-.17.55-1.28,2.51-1.03,3.01.32.63,2.65.28,3.29.28ZM35.82,43.48c2.08-.07,4.24-.13,5.4-2.15,1.04-1.79,1.44-3.95,2.15-5.87.7-1.9,1.41-3.8,1.96-5.74.24-.86.7-1.74.11-2.58-.55-.78-1.62-.88-2.49-.92-1.98-.11-4.71-.28-6.18,1.31-1.46,1.57-1.99,4.29-2.64,6.28-.71,2.15-1.71,4.36-2.21,6.56-.17.77-.31,1.98.33,2.55.79.7,2.61.56,3.57.56ZM30.74,33.86c-.58,0-1.92-.27-2.44.06-.41.26-.8,1.84-.87,2.29-.19,1.18.33.33.69.91.2.32-.58,1.85-.74,2.24-.25.6-1.49,1.63-1.83.5-.14-.48.48-1.62.62-2.09.22-.72.55-1.36.8-2.06.32-.91,1.68-7.46,3.42-6.24.91.64-1.1,2.22.06,2.81.47.24,1.51,0,2.05,0,.82-.01,1.22.09,1.6-.65.53-1.01,1.37-3.25.81-4.34-.64-1.26-2.37-1.06-3.54-1.09-1.45-.04-3.09-.07-4.37.71-1.14.69-1.64,1.88-2.12,3.06-1.09,2.72-2.01,5.61-2.89,8.4-.35,1.13-1.39,3.27-.52,4.37.7.88,2.5.72,3.5.74,1.54.03,3.3.04,4.58-.95,1.08-.82,1.48-2.13,1.9-3.36.5-1.46,1.21-2.94,1.6-4.42.15-.55.28-.63-.15-.89-.36-.22-1.78-.01-2.18-.01ZM75.45,43.2c1.16,0,2.21.09,3.21-.57.92-.61,1.7-1.48,2.47-2.26,1.47-1.49,2.92-3.01,4.39-4.48.83-.83.74-1.07.27-2.06-.5-1.07-.98-2.15-1.5-3.22-.47-.97-.86-2.15-1.59-2.97-.81-.91-1.68-.91-2.85-.91-.75,0-2.36-.4-2.35.62,0,.76.97,2.11,1.3,2.82.47,1.01.96,2.01,1.47,3,.6,1.17,1.04,1.66.04,2.75-1.4,1.52-2.88,3.08-4.39,4.49-.71.66-1.58,1.33-2.15,2.11-.79,1.1.9.68,1.68.68ZM45.74,43.4c.87,0,2.89.37,3.61-.13.36-.25,1.23-2.4,1.13-2.84-.19-.81-1.9-.43-2.67-.44-1.17-.02-1.01-.25-.63-1.32.76-2.19,1.73-4.35,2.36-6.57.34-1.18.73-2.31,1.18-3.46.21-.55.93-1.87.3-2.31-.36-.26-2.68-.11-3.12.03-.79.25-.81,1.28-1.06,2-.75,2.13-1.52,4.26-2.24,6.4-.76,2.26-1.55,4.51-2.27,6.77-.22.71-.82,1.39-.11,1.82.7.42,2.71.03,3.53.03ZM101.72,41.88s0,0,0,0c1.86,0,2.98-.08,3.79-1.94.64-1.46.97-3.24,1.3-4.79.37-1.74,1.23-3.51,1.38-5.26.17-1.95-.86-2.19-2.6-2.32-1.66-.13-3.16.31-3.85,1.9-.71,1.63-.95,3.4-1.42,5.1-.49,1.79-1.17,3.54-1.39,5.39-.24,1.99,1.18,1.93,2.78,1.93ZM116.17,38.72s0-.01,0-.02c.6,0,2.21-.35,2.38.45.16.73-.99,1.77-.77,2.46.27.84,1.23.27,1.5-.31.29-.64.16-1.78.66-2.32.5-.54,1.52.06,1.92-.42.91-1.09-.86-.78-1.13-.91-.66-.31-.28-.82-.08-1.47.33-1.03.49-2.12.76-3.17.26-1.01,1.96-4.5,1.16-5.33-.55-.57-1.82,0-2.2.42-.6.67-1.03,1.53-1.53,2.27-1.18,1.78-2.33,3.59-3.54,5.36-.4.58-1.55,1.71-1.51,2.4.05.91,1.72.58,2.38.58ZM140.52,28.84h0c.55,0,2.64.38,2.31-.89-.2-.8-2.45-.39-3.15-.39-1.22,0-2.22-.25-2.59,1.08-.31,1.13-.56,2.27-.88,3.4-.16.55-.92,1.88-.53,2.39.52.69,2.69.15,3.44.25,1.23.17.75.91.56,1.89-.2,1.09-.44,2.52-1.01,3.49-.52.88-1.79,1-2.75.76-1.31-.34-.25-1.37-.35-2.28-.08-.76-.9-.92-1.35-.35-.29.36-.51,2.06-.47,2.52.13,1.49,1.55,1.19,2.68,1.19.94,0,2.14.21,2.89-.49.78-.73,1.01-2.03,1.27-3.01.26-.98.6-2,.76-3,.15-.93.04-1.76-.96-2-.6-.15-2.73.38-3.05-.18-.29-.51.63-3.08.82-3.65.36-1.07,1.32-.72,2.34-.72ZM94.71,40.83h0c-.4,0-1.73.22-2.03-.04-.35-.31-.1-.6.05-1.11.28-.98.4-2.04,1.11-2.82,1.46-1.62,3.93-2.13,5.19-4.02.6-.91,1.03-2.19,1.13-3.27.11-1.22-.42-1.69-1.56-1.92-1.13-.22-2.55-.12-3.54.56-.79.55-.98,1.65-1.25,2.51-.21.67-.46,1.06.37,1.07,1.09.01.89-1.45,1.3-2.19.49-.88,1.49-.9,2.42-.78,1.21.15.93.98.65,1.94-.61,2.1-2.26,3.02-4,4.17-1.71,1.13-2.63,2.35-3.12,4.36-.18.72-.92,2.37,0,2.7.28.1,1.05-.09,1.38-.09.66,0,1.31.01,1.97.02.54,0,2.46.4,2.31-.66-.11-.78-1.85-.44-2.39-.44ZM129.21,41.91h0c.68-.01,3.04.43,3.16-.48.14-1.03-1.85-.59-2.49-.58-.44,0-1.38.17-1.79-.02-.52-.24-.37-.14-.28-.76.14-.97.52-2.51,1.21-3.25,1.4-1.51,3.72-2.13,5.08-3.76.85-1.03,2.06-3.93.82-5.03-1.38-1.23-4.31-.43-5.23.99-.33.5-1.05,1.89-.78,2.49.53,1.15,1.3-.49,1.45-.92.33-.96.55-1.74,1.69-1.79.99-.05,1.93-.22,1.88.93-.09,2.32-1.45,3.46-3.23,4.67-1.78,1.21-3.23,2.1-3.79,4.28-.14.53-.97,2.58-.69,3.06.3.5,2.47.2,2.98.2ZM109.98,41.87s0,.02,0,.02c.62,0,2.77.37,2.94-.44.22-1.03-2.1-.63-2.59-.62-.41,0-1.64.19-1.95-.08-.28-.25.09-1.01.18-1.31.36-1.17.59-2.24,1.59-3.04,1.4-1.11,3.43-1.91,4.52-3.34.84-1.1,2.18-4.19.55-5.11-1.65-.93-4.33-.25-5.19,1.44-.27.53-.88,2.16-.16,2.41,1,.34.99-1.16,1.17-1.7.35-1.04.92-1.31,1.95-1.32.97,0,1.6-.12,1.58.98-.04,2.46-1.86,3.69-3.7,4.94-.93.63-2,1.26-2.62,2.22-.51.8-.68,1.72-.95,2.61-.17.55-.87,2.12-.24,2.45.16.08,1.02-.11,1.25-.11.56,0,1.12,0,1.68,0ZM121.63,42.33c.06.16.11.32.16.47,1.03-.5,1.42-2.29,1.88-3.29.74-1.62,1.43-3.26,2.14-4.9.6-1.4,1.17-2.81,1.79-4.2.32-.71.6-1.44.91-2.16.16-.36.62-.94.49-1.3-.35-.99-1.85,2.53-1.98,2.84-.58,1.44-1.22,2.83-1.84,4.26-1.19,2.75-2.47,5.48-3.56,8.27Z"/>
  <path class="cls-1" d="M66.25,21.15c-2.52,0-5.04,0-7.56,0-1.04,0-2.08.34-1.62-.91.35-.93.54-2.11.94-2.98.45-.98,1.01-.21,1.74-.62.64-.36.88-2.03,1.08-2.7.62-2.02,1.18-4.05,1.82-6.06.25-.8.78-1.72.83-2.57.06-1.11-.65-.3-1.19-.93-.41-.47.28-1.91.44-2.39.29-.89.36-1.78,1.35-1.86,2.49-.2,5.08,0,7.58,0,2.53,0,5.05,0,7.58,0,.44,0,1.5-.18,1.91.03.46.24.35-.05.2.68-.21,1.03-.76,2.09-1.09,3.08-.28.84-.43,1.86-.83,2.65-.54,1.06-1.8.68-2.86.68-.62,0-2.33.34-2.82-.05-.67-.53.61-1.71.39-2.32-.21-.57-1.73-.29-2.26-.29-.59,0-.9-.11-1.24.34-.31.4-.52,1.32-.68,1.8-.28.85-.71,1.49.21,1.72,1.1.27,2.58.06,3.71.1.96.03.92.28.62,1.2-.22.66-.5,2.31-1.12,2.62-.66.34-2.27.02-3.04.02-.63,0-1.63-.23-2.11.23-.45.44-.68,2.01-.87,2.6-.37,1.1-.71,1.46.7,1.46.6,0,1.2.02,1.79,0,.83-.04.77-.05,1.01-.81.44-1.41.39-1.86,1.92-1.85,1.31,0,2.73-.15,4.03,0,1.06.13.85.54.57,1.47-.33,1.1-.67,2.2-1,3.3-.22.75-.28,2.09-1.05,2.4-.53.22-1.67,0-2.27,0-.76,0-1.51,0-2.27,0-1.51,0-3.02,0-4.53,0,0-.01,0-.02,0-.03Z"/>
  <path class="cls-1" d="M6.92,21.14c-1.24,0-2.48,0-3.72,0-.58,0-2.68.34-3.08-.12-.38-.44.31-1.78.45-2.27.27-.91.47-1.87.76-2.77.25-.75.36-1.18,1.17-1.24,1.23-.1,2.51,0,3.75,0,.7,0,2.09-.32,2.24.43.13.65-.82,1.11.05,1.48.52.22,2.29.16,2.82.02.87-.23.91-1.5,1.18-2.3.24-.73.9-1.44,0-1.73-.95-.31-2.49.02-3.49,0-1.62-.02-4.82.21-5.55-1.73-.65-1.74.45-4.11.97-5.74.62-1.95,1.36-3.38,3.26-4.34C9.62-.11,12.01.09,14.07.14c2.31.05,4.62-.02,6.92,0,.57,0,1.88-.28,2.14.36.22.55-.63,2.12-.8,2.65-.24.73-.35,2.37-.88,2.91-.55.56-2.17.23-2.93.23-.64,0-2.62.34-3.12-.02-.63-.45.4-1.08-.15-1.61-.31-.3-2.82-.2-3.21-.05-.8.3-.86,1.56-1.12,2.3-.26.76-.62,1.28.26,1.52,1.1.3,2.72-.02,3.87,0,1.81.02,4.53-.13,5.2,2.01.58,1.85-.74,4.37-1.28,6.14-1.66,5.4-7.52,4.59-12.07,4.59Z"/>
  <path class="cls-1" d="M50.06.14c2.21,0,4.41,0,6.62,0,1.1,0,2.21.03,3.31,0,1.21-.04,1.26.04.93,1.24-.46,1.7-1.08,3.35-1.53,5.05-.13.49-.13,1.11-.57,1.41-.61.41-2.51.05-3.24.05-.55,0-1.49.25-1.59-.35-.11-.72.98-1.79.77-2.53-.17-.63-.74-.44-1.42-.41-1.16.04-1.07.64-1.46,1.67-.62,1.66-.88,3.44-1.51,5.11-.3.81-.58,1.63-.8,2.47-.16.63-.66,1.54-.68,2.12-.04.82.02.5.7.72.86.27.68.39.4,1.3-.22.71-.35,2.26-.84,2.81-.59.67-2.04.34-2.87.34-2.02,0-4.05.01-6.07.03-1.1,0-1.65.29-1.28-.9.16-.5.34-1,.49-1.5.13-.45.2-1.47.5-1.81.42-.49.95-.06,1.46-.34.49-.27.54-.85.69-1.35.56-1.79,1.14-3.58,1.7-5.36.26-.84.46-1.71.73-2.56.18-.56.94-1.82.74-2.4-.19-.56-1.19-.42-1.76-.34-1.12.15-.87,1.03-1.26,2.03-.3.78-.25,1.05-1.01,1.25-.45.12-1.13,0-1.6,0-.58,0-1.59.19-2.14,0-.88-.32-.51-.72-.23-1.61.3-.96.62-1.91.92-2.86.23-.73.4-2.73,1.02-3.18.58-.43,2.29-.09,2.97-.09,2.63,0,5.26,0,7.88,0Z"/>
  <path class="cls-1" d="M86.55.15c.61,0,2.67-.32,3.18.02.41.27.34.1.33.67,0,.25-.16.85-.34,1.01-.58.51-1.98-.36-2.46.38-.32.49-.24,2.27-.31,2.86-.24,2.21-.32,4.44-.54,6.66-.19,1.97-.93,4.46-.44,6.4,1.08-1.38,1.87-3.31,2.64-4.89.92-1.87,2.05-3.63,3-5.49.87-1.71,1.74-3.41,2.65-5.1.35-.65.79-2.01,1.44-2.4.4-.24,2.88-.36,3.25-.08.43.32.13,1.84.06,2.33-.11.9-.17,1.75-.22,2.66-.11,2.07-.4,4.13-.62,6.19-.11,1.06-.15,2.12-.27,3.17-.09.77-.46,2.37-.21,3.09.31.92.51-.02.82-.61.56-1.07,1.12-2.13,1.69-3.2,1.87-3.5,3.8-6.98,5.59-10.51,1.29-2.54-1.44-.29-1.65-1.87-.26-1.96,3.24-1.28,4.33-1.28.57,0,2.69-.34,3.11.02.29.25.06,1.44-.34,1.7-.68.43-1.71-.29-2.38.34-.65.62-.95,2-1.4,2.79-1.99,3.49-3.87,7.06-5.77,10.61-.57,1.06-1.09,2.15-1.66,3.22-.4.75-.88,2.06-1.7,2.34-.38.13-2.75.23-3.09-.08-.42-.37.08-2.54.12-3.09.19-2.55.38-5.09.59-7.64.1-1.16.11-2.34.25-3.5.13-1.14.41-2.3.14-3.43-1.41,1.55-2.26,3.94-3.25,5.78-.98,1.85-2,3.68-2.97,5.53-.98,1.87-1.87,3.82-2.99,5.61-.66,1.06-1.65.85-2.84.82-1.09-.02-1.06-.21-.97-1.3.35-4.5.47-9.03.97-13.52.11-1.02.62-2.85.27-3.81-.1-.29.08-.35-.21-.54-.34-.23-1.07.14-1.42-.06-.56-.31-.39-1.47.24-1.77.8-.38,2.52-.02,3.39-.02Z"/>
  <path class="cls-1" d="M25.69,21.18c-1.41,0-2.82.01-4.23,0-.38,0-.85.14-1.01-.26-.13-.34.35-1.44.47-1.77.24-.69.5-2.16,1.21-2.46.47-.2.88.12,1.31-.25.34-.29.47-1.13.58-1.52.73-2.54,1.52-5.05,2.24-7.59.12-.43,1.06-2.29.75-2.66-.45-.54-1.05.28-1.29-.59-.23-.82.68-2.51,1.02-3.27.23-.51.16-.52.66-.68.66-.2,1.75,0,2.44,0,1.35,0,2.71,0,4.06,0,.73,0,2.99-.4,3.31.33.24.54-.82,2.92-1.08,3.47-.49,1.05-1.23.2-1.9.85-.3.29-.26,1.01-.37,1.37-.16.52-.43.99-.57,1.52-.35,1.31-.88,2.53-1.25,3.82-.39,1.39-1.09,2.94-1.3,4.35-.18,1.2.56.38,1.16.87.35.29.11.69,0,1.07-.24.88-.5,3.09-1.33,3.36-.61.2-1.62.04-2.26.04-.87,0-1.75,0-2.62,0Z"/>
  <path class="cls-1" d="M144.42,21.19c-1.33,0-2.66,0-4,0-.67,0-1.33,0-2,0-.33,0-1.63.21-1.94-.06-.34-.3-.02-1.28.27-1.58.65-.67,1.91.18,2.54-.47.25-.26.26-1.05.37-1.4.16-.55.37-1.08.57-1.61.39-1.04.67-2.09.95-3.16.6-2.27,1.38-4.53,2.08-6.77.33-1.06.87-2.18,1.06-3.27.27-1.5-1.11-.42-1.83-.94-.37-.27-.22-.92.06-1.33.47-.69,1.35-.44,2.15-.44,2.78,0,5.55,0,8.33,0,1.3,0,2.59,0,3.89,0,.38,0,1.41-.17,1.71.04.42.29.05.77-.11,1.25-.37,1.09-.58,2.34-1.05,3.39-.19.42-.16.45-.59.6-.25.09-1.6.12-1.81-.12-.47-.54.64-1.98.68-2.58.09-1.12-.94-.8-1.83-.8-1.31,0-2.63,0-3.94,0-.81,0-2.39-.34-2.93.28-.24.28-.25,1.03-.36,1.39-.16.49-.34.98-.48,1.47-.33,1.19-.94,2.48-1.13,3.69-.17,1.09.88.76,1.76.76,1.48,0,2.96,0,4.44-.01,1.01,0,1.69-.31,1.47.86-.26,1.37-1.42.99-2.58.99-1.28,0-2.56,0-3.85,0-.99,0-1.82-.29-2.23.68-.42.98-.61,2.13-.94,3.15-.17.52-.34,1.04-.49,1.58-.14.52-.63,1.53-.61,2.06.03.88,1.98.49,2.7.49,1.44,0,2.89,0,4.33,0,.4,0,1.24.16,1.57-.15.28-.27.28-1.17.39-1.51.37-1.19.65-1.9,1.99-1.8,1.37.1.74.99.44,1.93-.26.81-.38,2.41-.95,3.05-.58.64-2.11.3-2.97.3-1.7,0-3.4,0-5.1,0,0,.02,0,.03,0,.05Z"/>
  <path class="cls-1" d="M123.97,21.13c-1.24,0-2.48,0-3.72,0-.56,0-2.19.28-2.45-.24.02.04.39-1.07.4-1.09.14-.46.33-.9.46-1.36.17-.6.26-2.01.75-2.44.33-.3,1.96-.33,2.23.02.43.55-.8,2.1-.73,2.69.12.89,1.18.6,1.98.6,1.31,0,2.63,0,3.94,0,.98,0,2.33.25,3.24-.18.91-.42,1.05-1.35,1.31-2.22.34-1.15,2.09-4.22.83-5.26-.66-.55-2.4-.31-3.21-.32-1.31-.02-2.72.12-4.01-.05-2.08-.27-3.45-1.26-2.85-3.57.5-1.89,1.04-4.23,2.09-5.89,1.12-1.78,3.47-1.67,5.31-1.68,2.48-.01,4.96,0,7.45,0,.95,0,1.92-.37,1.75.73-.18,1.17-.65,2.46-1.06,3.56-.35.94-.91,1.24-1.99,1-1.13-.25-.33-1.48-.08-2.35.33-1.14.17-1.15-.98-1.15-1.27,0-2.55.02-3.82.02-1.05,0-2.45-.23-3.44.12-.94.33-1.21,1.37-1.52,2.2-.33.89-.5,1.8-.76,2.71-.23.81-.77,1.77.18,2.35.8.49,2.4.16,3.31.17,1.38.02,2.8,0,4.17.21.89.14,2.01.44,2.41,1.36.42.96-.1,2.28-.38,3.21-.63,2.06-1,5.26-3.13,6.32-2.15,1.08-5.34.51-7.68.51,0,0,0,0,0,0Z"/>
  <path class="cls-1" d="M110.53,21.18c-.63,0-3.17.39-3.58-.04-.27-.29-.12-.5-.03-.89.2-.89.22-.91,1.12-.93.46,0,1.13.17,1.51-.13.34-.28.45-1.22.57-1.6.38-1.22.69-2.45,1.06-3.67.7-2.3,1.43-4.56,2.09-6.87.23-.8,2.01-4.51,1.27-5.08-.6-.46-1.65.49-1.87-.48-.36-1.61,1.56-1.33,2.47-1.33,1.28,0,2.55,0,3.83,0,.88,0,2.13.21,1.17,1.4-.67.83-1.96-.11-2.62.59-.31.33-.41,1.31-.55,1.75-.22.7-.43,1.41-.64,2.11-.68,2.24-1.35,4.49-2.07,6.71-.44,1.34-.83,2.71-1.19,4.08-.15.58-.56,1.35-.6,1.92-.04.58-.15.41.34.61.85.35,2.36-.4,1.5,1.24-.32.62-.2.57-1.03.58-.92.02-1.85,0-2.77,0,0,.02,0,.03,0,.05Z"/>
  <path class="cls-1" d="M55.81,40.24c-1.18,0-.27-1.6-.04-2.22.4-1.08.75-2.17,1.11-3.26.33-1,.73-1.95,1.05-2.95.28-.88.37-2.39,1.48-2.41,1.27-.02.81.75.52,1.55-.47,1.27-.75,2.59-1.24,3.86-.44,1.12-.78,2.24-1.16,3.37-.28.81-.59,2.21-1.72,2.05Z"/>
  <path class="cls-1" d="M36.92,40.29c-1.34,0-.6-1.19-.29-2.06.39-1.08.78-2.15,1.15-3.24.41-1.2,1.21-5.86,2.88-5.64,1.16.15.44,1.57.18,2.32-.4,1.12-.88,2.17-1.21,3.31-.3,1.04-1.29,5.66-2.7,5.31Z"/>
  <path class="cls-1" d="M101.98,40.79c-1.92,0-1.69-.85-1.32-2.42.34-1.46.79-2.89,1.16-4.34.29-1.16.54-2.27.94-3.39.56-1.56.9-1.81,2.53-1.8.45,0,1.15-.15,1.46.28.33.45,0,1.36-.14,1.83-.41,1.31-.74,2.62-1.08,3.95-.34,1.38-.66,2.85-1.09,4.2-.43,1.36-1.07,1.72-2.46,1.72,0,0,0-.02,0-.02Z"/>
  <path class="cls-1" d="M117.21,37.62c-.86,0-1.87.3-1.4-.75.4-.9,1.23-1.75,1.76-2.6.51-.83,1.1-1.62,1.66-2.41.52-.74,1.17-2.25,1.9-2.69.18.72-.32,1.73-.56,2.4-.32.89-.49,1.81-.7,2.74-.19.82-.33,1.78-.68,2.54-.44.94-.99.78-1.96.78Z"/>
</svg>