<?xml version="1.0" encoding="UTF-8"?>
<svg id="Layer_1" xmlns="http://www.w3.org/2000/svg" viewBox="0 0 193.47 25.18">
  <defs>
    <style>
      .cls-1 {
        fill: #cecd4e;
      }

      .cls-2 {
        fill: #ed7a39;
      }

      .cls-3 {
        fill: #fff;
      }

      .cls-4 {
        fill: #3f598c;
      }
    </style>
  </defs>
  <g>
    <path class="cls-3" d="M54.05,16.43V.52h2.97l5.73,8.18,5.71-8.18h2.99v15.91h-3.98v-7.64l-3.98,5.58h-1.51l-3.98-5.58v7.64h-3.94Z"/>
    <path class="cls-3" d="M74.59,16.43V.52h11.5v3.72h-7.45v2.35h6.89v3.7h-6.89v2.41h7.43v3.72h-11.48Z"/>
    <path class="cls-3" d="M91.91,4.39h-4.41V.52h12.88v3.88h-4.39v12.04h-4.07V4.39Z"/>
    <path class="cls-3" d="M110.34,16.43l-.93-2.91h-5.06l-.95,2.91h-4.16l5.81-15.91h3.75l5.66,15.91h-4.13ZM108.45,10.03l-1.51-4.71-1.57,4.71h3.08Z"/>
    <path class="cls-3" d="M116.13,16.43V.52h4.05v12.08h7.73v3.83h-11.78Z"/>
    <path class="cls-3" d="M131.09,16.41l-4.05-11.86h4l2.04,6.91,2.26-6.91h2.67l2.3,6.91,2.02-6.91h4l-4.05,11.86h-3.38l-2.24-6.31-2.22,6.31h-3.38Z"/>
    <path class="cls-3" d="M148.42,14.94c-1.18-1.21-1.79-2.69-1.79-4.46s.6-3.25,1.79-4.46c1.21-1.23,2.76-1.83,4.67-1.83s3.49.6,4.67,1.83c1.21,1.21,1.81,2.69,1.81,4.46s-.6,3.25-1.81,4.46c-1.18,1.21-2.76,1.81-4.67,1.81s-3.47-.6-4.67-1.81ZM155.01,12.42c.52-.54.77-1.18.77-1.96s-.26-1.4-.8-1.92c-.52-.52-1.14-.78-1.9-.78s-1.38.26-1.89.8c-.52.52-.77,1.14-.77,1.89s.26,1.42.77,1.96c.52.52,1.14.77,1.89.77s1.4-.26,1.92-.77Z"/>
    <path class="cls-3" d="M161.42,16.43V4.54h3.64v1.46c.75-1.18,1.81-1.79,3.16-1.79.52,0,1.01.11,1.49.32l-.3,3.62c-.56-.19-1.08-.28-1.57-.28-1.74,0-2.63,1.14-2.63,3.42v5.12h-3.79Z"/>
    <path class="cls-3" d="M178.88,16.43l-3.51-4.72-.56.52v4.2h-3.79V0h3.79v7.99l3.57-3.44h4.63l-5.1,4.78,5.49,7.1h-4.52Z"/>
    <path class="cls-3" d="M183.09,14.71l1.7-2.56c1.14.99,2.33,1.49,3.55,1.49.84,0,1.27-.26,1.27-.75,0-.28-.21-.5-.65-.67-.06-.02-.5-.15-1.31-.43-.8-.28-1.36-.47-1.64-.6-1.49-.69-2.22-1.77-2.22-3.23,0-1.12.45-2.02,1.33-2.71.88-.71,2.09-1.05,3.57-1.05,1.7,0,3.17.52,4.44,1.55l-1.64,2.5c-.99-.67-1.94-1.01-2.86-1.01-.62,0-1.08.3-1.08.67,0,.39.37.67,1.08.86,1.14.32,2.09.67,2.8,1.03,1.44.71,2.02,1.64,2.02,3.01,0,1.16-.45,2.11-1.38,2.86-.93.73-2.15,1.1-3.72,1.1-2.09,0-3.83-.69-5.27-2.04Z"/>
  </g>
  <g>
    <path class="cls-3" d="M149.65,20.08c.59-.59,1.3-.88,2.14-.88s1.55.29,2.13.88c.59.59.88,1.29.88,2.12s-.29,1.53-.88,2.11c-.58.58-1.29.87-2.14.87s-1.57-.28-2.14-.85-.85-1.28-.85-2.11.29-1.55.87-2.14ZM153.12,20.81c-.37-.37-.81-.56-1.34-.56s-.98.19-1.35.56c-.37.37-.55.83-.55,1.39s.18,1.02.54,1.39c.37.37.81.55,1.35.55s.99-.18,1.35-.55c.37-.37.55-.83.54-1.39,0-.56-.19-1.02-.56-1.39Z"/>
    <path class="cls-3" d="M156.66,20.34h-1.67v-1.03h4.42v1.03h-1.67v4.75h-1.08v-4.75Z"/>
    <path class="cls-3" d="M163.19,25.09l-.48-1.31h-2.05l-.48,1.31h-1.13l2.24-5.78h.82l2.22,5.78h-1.14ZM161.69,20.83l-.72,1.98h1.43l-.71-1.98Z"/>
    <path class="cls-3" d="M165.35,24.34c-.56-.56-.84-1.28-.84-2.14s.3-1.59.88-2.15c.59-.56,1.32-.85,2.17-.85.94,0,1.82.4,2.35.97l-.71.75c-.45-.46-.99-.69-1.64-.69-.56,0-1.03.19-1.4.56-.37.37-.56.84-.56,1.4s.18,1.02.55,1.39.84.56,1.39.56c.62,0,1.24-.27,1.62-.67v-.88h-1.67v-.94h2.66v2.34c-.74.77-1.61,1.17-2.64,1.17-.87,0-1.59-.28-2.16-.84Z"/>
    <path class="cls-3" d="M171.71,20.08c.59-.59,1.3-.88,2.14-.88s1.55.29,2.13.88c.59.59.88,1.29.88,2.12s-.29,1.53-.88,2.11c-.58.58-1.29.87-2.14.87s-1.57-.28-2.14-.85-.85-1.28-.85-2.11.29-1.55.87-2.14ZM175.19,20.81c-.37-.37-.81-.56-1.34-.56s-.98.19-1.35.56c-.37.37-.55.83-.55,1.39s.18,1.02.54,1.39c.37.37.81.55,1.35.55s.99-.18,1.35-.55c.37-.37.55-.83.54-1.39,0-.56-.19-1.02-.56-1.39Z"/>
    <path class="cls-3" d="M179.77,25.09v-5.78h1.07v4.76h2.97v1.03h-4.05Z"/>
    <path class="cls-3" d="M184.82,20.34h-1.67v-1.03h4.42v1.03h-1.67v4.75h-1.08v-4.75Z"/>
    <path class="cls-3" d="M188.35,25.09v-5.78h2.23c.85,0,1.53.26,2.02.78.49.52.74,1.22.74,2.12s-.25,1.59-.75,2.11c-.49.52-1.18.77-2.05.77h-2.18ZM189.41,24.06h1.16c.52,0,.92-.18,1.21-.53.29-.35.44-.81.44-1.35s-.14-.97-.43-1.32c-.29-.35-.69-.53-1.21-.53h-1.17v3.73Z"/>
  </g>
  <rect class="cls-4" x="36.35" y=".52" width="15.91" height="15.91"/>
  <rect class="cls-2" x="18.18" y=".52" width="15.91" height="15.91"/>
  <rect class="cls-1" y=".52" width="15.91" height="15.91"/>
</svg>